<svg xmlns="http://www.w3.org/2000/svg" xmlns:xlink="http://www.w3.org/1999/xlink" width="507" zoomAndPan="magnify" viewBox="0 0 380.25 231" height="308" preserveAspectRatio="xMidYMid meet" version="1.2"><defs><clipPath id="bcc4ff67fa"><path d="M 338.054688 144.136719 L 360.769531 144.136719 L 360.769531 186.347656 L 338.054688 186.347656 Z M 338.054688 144.136719 "/></clipPath><clipPath id="149ba26218"><path d="M 63 0.226562 L 124 0.226562 L 124 82 L 63 82 Z M 63 0.226562 "/></clipPath><clipPath id="d4e53e3660"><path d="M 315 28 L 379.5 28 L 379.5 114 L 315 114 Z M 315 28 "/></clipPath></defs><g id="1ce64ab618"><g clip-rule="nonzero" clip-path="url(#bcc4ff67fa)"><path style=" stroke:none;fill-rule:nonzero;fill:#b83143;fill-opacity:1;" d="M 338.054688 144.136719 L 360.769531 144.136719 L 360.769531 186.371094 L 338.054688 186.371094 Z M 338.054688 144.136719 "/></g><path style=" stroke:none;fill-rule:nonzero;fill:#faebd9;fill-opacity:1;" d="M 130.070312 39.097656 C 132.121094 38.746094 134.101562 40.015625 134.558594 42.0625 C 134.804688 42.488281 137.140625 51.808594 139.082031 57.808594 C 139.082031 57.808594 139.507812 57.703125 140.109375 57.5625 C 140.109375 57.5625 138.90625 40.371094 138.445312 34.296875 C 138.234375 31.753906 139.96875 30.0625 142.195312 29.8125 C 144.421875 29.566406 146.363281 31.226562 146.683594 33.449219 C 147.460938 38.992188 149.792969 55.019531 149.792969 55.019531 C 149.828125 55.019531 149.828125 55.019531 149.828125 55.019531 L 150.851562 54.878906 C 151.523438 48.949219 151.914062 35.460938 152.019531 29 C 152.054688 26.460938 153.929688 24.410156 156.261719 24.410156 C 159.054688 24.410156 160.359375 26.035156 160.503906 28.929688 C 160.503906 29 161.03125 47.113281 161.773438 55.195312 L 162.550781 55.195312 C 162.765625 53.539062 164.179688 37.617188 164.707031 31.789062 C 164.992188 28.753906 166.972656 27.308594 169.339844 27.484375 C 171.742188 27.625 173.546875 29.8125 173.4375 32.355469 C 173.085938 41.039062 172.765625 67.164062 172.800781 67.164062 C 174.746094 65.011719 176.726562 62.644531 179.09375 58.976562 C 180.15625 57.351562 182.875 50.75 187.082031 53.855469 C 189.945312 55.902344 186.730469 63.5625 185.351562 66.246094 C 183.089844 70.695312 180.789062 74.648438 176.371094 82.945312 C 175.984375 83.6875 173.191406 88.207031 169.90625 93.183594 C 166.757812 98.019531 166.617188 103.8125 166.652344 103.777344 L 142.195312 106.777344 C 142.195312 106.777344 141.699219 99.574219 141.027344 98.125 C 140.601562 97.207031 140.355469 96.078125 139.683594 95.125 C 133.921875 86.972656 130.210938 76.097656 129.644531 66.421875 C 129.398438 62.789062 126.78125 43.546875 126.78125 43.546875 C 126.570312 41.535156 127.984375 39.453125 130.070312 39.097656 Z M 130.070312 39.097656 "/><path style=" stroke:none;fill-rule:nonzero;fill:#faebd9;fill-opacity:1;" d="M 188.566406 229.953125 L 166.757812 94.738281 L 141.167969 95.480469 L 127.101562 229.953125 Z M 188.566406 229.953125 "/><path style=" stroke:none;fill-rule:nonzero;fill:#e6b8ac;fill-opacity:1;" d="M 256.816406 16.679688 C 258.9375 16.328125 260.953125 17.632812 261.414062 19.714844 C 261.660156 20.140625 264.0625 29.742188 266.078125 35.886719 C 266.078125 35.886719 266.503906 35.78125 267.105469 35.640625 C 267.105469 35.640625 265.867188 17.988281 265.371094 11.738281 C 265.160156 9.125 266.925781 7.359375 269.222656 7.148438 C 271.523438 6.902344 273.5 8.597656 273.820312 10.855469 C 274.632812 16.539062 277.035156 33.027344 277.035156 33.027344 C 277.070312 33.027344 277.070312 33.027344 277.070312 33.027344 L 278.097656 32.851562 C 278.769531 26.777344 279.191406 12.902344 279.296875 6.265625 C 279.332031 3.652344 281.277344 1.535156 283.679688 1.535156 C 286.578125 1.535156 287.886719 3.230469 288.0625 6.195312 C 288.0625 6.265625 288.628906 24.90625 289.371094 33.167969 L 290.183594 33.167969 C 290.394531 31.4375 291.878906 15.128906 292.375 9.089844 C 292.660156 5.984375 294.707031 4.5 297.148438 4.640625 C 299.621094 4.816406 301.460938 7.042969 301.351562 9.65625 C 301 18.585938 300.683594 45.417969 300.71875 45.417969 C 302.730469 43.230469 304.78125 40.757812 307.183594 37.015625 C 308.28125 35.320312 311.074219 28.578125 315.386719 31.753906 C 318.320312 33.875 315.03125 41.710938 313.617188 44.5 C 311.285156 49.054688 308.917969 53.148438 304.394531 61.691406 C 304.003906 62.46875 301.105469 67.09375 297.75 72.214844 C 294.496094 77.191406 294.390625 83.15625 294.425781 83.085938 L 269.296875 86.160156 C 269.296875 86.160156 268.765625 78.746094 268.09375 77.261719 C 267.667969 76.308594 267.421875 75.144531 266.714844 74.191406 C 260.777344 65.824219 256.960938 54.667969 256.429688 44.675781 C 256.183594 40.96875 253.496094 21.164062 253.496094 21.164062 C 253.214844 19.152344 254.664062 17.070312 256.816406 16.679688 Z M 256.816406 16.679688 "/><path style=" stroke:none;fill-rule:nonzero;fill:#e6b8ac;fill-opacity:1;" d="M 318 229.953125 L 295.769531 76.449219 L 268.128906 77.332031 L 254.945312 229.953125 Z M 318 229.953125 "/><path style=" stroke:none;fill-rule:nonzero;fill:#7d614e;fill-opacity:1;" d="M 3.464844 42.382812 C 5.550781 42.027344 7.492188 43.335938 7.953125 45.347656 C 8.199219 45.769531 10.53125 55.125 12.476562 61.128906 C 12.476562 61.128906 12.902344 61.023438 13.5 60.882812 C 13.5 60.882812 12.300781 43.652344 11.804688 37.546875 C 11.59375 35.003906 13.324219 33.273438 15.550781 33.0625 C 17.777344 32.8125 19.722656 34.472656 20.039062 36.699219 C 20.816406 42.242188 23.1875 58.339844 23.1875 58.339844 C 23.222656 58.339844 23.222656 58.339844 23.222656 58.339844 L 24.246094 58.199219 C 24.917969 52.265625 25.308594 38.746094 25.414062 32.25 C 25.449219 29.707031 27.320312 27.625 29.691406 27.625 C 32.519531 27.625 33.789062 29.25 33.964844 32.144531 C 33.964844 32.214844 34.496094 50.394531 35.273438 58.480469 L 36.050781 58.480469 C 36.265625 56.785156 37.679688 40.863281 38.207031 35.003906 C 38.492188 31.96875 40.46875 30.519531 42.875 30.660156 C 45.3125 30.800781 47.113281 32.992188 46.972656 35.53125 C 46.621094 44.253906 46.300781 70.414062 46.335938 70.414062 C 48.28125 68.257812 50.296875 65.894531 52.628906 62.222656 C 53.6875 60.597656 56.410156 53.960938 60.652344 57.105469 C 63.515625 59.1875 60.300781 66.847656 58.921875 69.53125 C 56.660156 73.980469 54.324219 77.96875 49.90625 86.300781 C 49.519531 87.042969 46.691406 91.558594 43.402344 96.574219 C 40.222656 101.410156 40.117188 107.234375 40.152344 107.199219 L 15.65625 110.269531 C 15.65625 110.269531 15.164062 103.035156 14.492188 101.585938 C 14.066406 100.632812 13.820312 99.503906 13.148438 98.585938 C 7.351562 90.429688 3.640625 79.523438 3.109375 69.777344 C 2.863281 66.140625 0.246094 46.832031 0.246094 46.832031 C 0 44.816406 1.34375 42.734375 3.464844 42.382812 Z M 3.464844 42.382812 "/><path style=" stroke:none;fill-rule:nonzero;fill:#7d614e;fill-opacity:1;" d="M 61.570312 229.953125 L 42.097656 99.152344 L 13.183594 98.585938 L 0.460938 229.953125 Z M 61.570312 229.953125 "/><g clip-rule="nonzero" clip-path="url(#149ba26218)"><path style=" stroke:none;fill-rule:nonzero;fill:#d7ab7c;fill-opacity:1;" d="M 120.246094 14.773438 C 118.230469 14.421875 116.285156 15.691406 115.828125 17.667969 C 115.578125 18.09375 113.28125 27.238281 111.371094 33.132812 C 111.371094 33.132812 110.949219 33.027344 110.382812 32.886719 C 110.382812 32.886719 111.585938 16.007812 112.042969 10.042969 C 112.222656 7.570312 110.558594 5.878906 108.367188 5.628906 C 106.175781 5.382812 104.269531 7.007812 103.949219 9.195312 C 103.171875 14.632812 100.875 30.378906 100.875 30.378906 C 100.839844 30.378906 100.839844 30.378906 100.839844 30.378906 L 99.851562 30.238281 C 99.214844 24.410156 98.824219 11.171875 98.683594 4.816406 C 98.648438 2.347656 96.808594 0.300781 94.511719 0.300781 C 91.757812 0.300781 90.484375 1.921875 90.34375 4.746094 C 90.34375 4.816406 89.8125 22.613281 89.070312 30.519531 L 88.292969 30.519531 C 88.117188 28.859375 86.667969 13.257812 86.171875 7.535156 C 85.890625 4.535156 83.945312 3.125 81.613281 3.300781 C 79.242188 3.441406 77.476562 5.59375 77.582031 8.066406 C 77.9375 16.609375 78.21875 42.242188 78.183594 42.242188 C 76.273438 40.121094 74.332031 37.792969 72.035156 34.191406 C 71.007812 32.566406 68.324219 26.105469 64.1875 29.179688 C 61.394531 31.191406 64.539062 38.710938 65.882812 41.359375 C 68.109375 45.734375 70.371094 49.617188 74.683594 57.773438 C 75.074219 58.515625 77.832031 62.929688 81.046875 67.835938 C 84.15625 72.566406 84.261719 78.285156 84.226562 78.25 L 108.226562 81.179688 C 108.226562 81.179688 108.722656 74.121094 109.394531 72.671875 C 109.816406 71.753906 110.03125 70.660156 110.703125 69.742188 C 116.355469 61.765625 119.996094 51.066406 120.5625 41.535156 C 120.808594 37.96875 123.355469 19.082031 123.355469 19.082031 C 123.671875 17.105469 122.292969 15.089844 120.246094 14.773438 Z M 120.246094 14.773438 "/></g><path style=" stroke:none;fill-rule:nonzero;fill:#d7ab7c;fill-opacity:1;" d="M 124.734375 229.953125 L 110.382812 70.203125 L 82.355469 70.128906 L 61.820312 229.953125 Z M 124.734375 229.953125 "/><path style=" stroke:none;fill-rule:nonzero;fill:#f8d9b8;fill-opacity:1;" d="M 245.753906 57.210938 C 243.882812 56.890625 242.113281 58.058594 241.691406 59.894531 C 241.476562 60.28125 239.359375 68.71875 237.589844 74.15625 C 237.589844 74.15625 237.203125 74.050781 236.671875 73.945312 C 236.671875 73.945312 237.765625 58.375 238.191406 52.867188 C 238.367188 50.574219 236.8125 49.019531 234.796875 48.808594 C 232.785156 48.59375 231.015625 50.078125 230.734375 52.089844 C 230.027344 57.105469 227.90625 71.648438 227.90625 71.648438 C 227.871094 71.648438 227.871094 71.648438 227.871094 71.648438 L 226.953125 71.507812 C 226.351562 66.140625 225.996094 53.925781 225.890625 48.066406 C 225.855469 45.769531 224.160156 43.898438 222.039062 43.898438 C 219.492188 43.898438 218.328125 45.382812 218.1875 47.996094 C 218.1875 48.066406 217.691406 64.480469 217.019531 71.789062 L 216.3125 71.789062 C 216.136719 70.273438 214.828125 55.867188 214.367188 50.574219 C 214.121094 47.820312 212.320312 46.511719 210.164062 46.652344 C 207.972656 46.792969 206.34375 48.773438 206.453125 51.066406 C 206.769531 58.9375 207.050781 82.59375 207.015625 82.59375 C 205.25 80.652344 203.445312 78.496094 201.328125 75.179688 C 200.371094 73.695312 197.898438 67.730469 194.082031 70.554688 C 191.5 72.425781 194.398438 79.34375 195.636719 81.78125 C 197.6875 85.804688 199.769531 89.40625 203.765625 96.925781 C 204.117188 97.597656 206.664062 101.691406 209.632812 106.210938 C 212.496094 110.589844 212.601562 115.847656 212.566406 115.8125 L 234.726562 118.53125 C 234.726562 118.53125 235.1875 112 235.789062 110.695312 C 236.175781 109.847656 236.390625 108.824219 236.988281 107.976562 C 242.222656 100.597656 245.578125 90.75 246.074219 81.957031 C 246.285156 78.675781 248.652344 61.234375 248.652344 61.234375 C 248.902344 59.398438 247.628906 57.5625 245.753906 57.210938 Z M 245.753906 57.210938 "/><path style=" stroke:none;fill-rule:nonzero;fill:#f8d9b8;fill-opacity:1;" d="M 250.421875 229.953125 L 236.988281 107.976562 L 211.011719 108.789062 L 189.804688 229.953125 Z M 250.421875 229.953125 "/><g clip-rule="nonzero" clip-path="url(#d4e53e3660)"><path style=" stroke:none;fill-rule:nonzero;fill:#d7ab7c;fill-opacity:1;" d="M 375.894531 43.722656 C 373.738281 43.371094 371.726562 44.675781 371.230469 46.792969 C 370.984375 47.253906 368.542969 56.890625 366.53125 63.140625 C 366.53125 63.140625 366.070312 63.035156 365.46875 62.894531 C 365.46875 62.894531 366.742188 45.066406 367.203125 38.746094 C 367.414062 36.132812 365.609375 34.332031 363.3125 34.085938 C 361.015625 33.839844 358.964844 35.53125 358.648438 37.863281 C 357.835938 43.617188 355.394531 60.246094 355.394531 60.246094 C 355.359375 60.246094 355.359375 60.246094 355.359375 60.246094 L 354.300781 60.070312 C 353.628906 53.925781 353.203125 39.945312 353.097656 33.238281 C 353.0625 30.625 351.121094 28.472656 348.679688 28.472656 C 345.78125 28.472656 344.4375 30.167969 344.261719 33.167969 C 344.261719 33.238281 343.695312 52.054688 342.917969 60.421875 L 342.105469 60.421875 C 341.894531 58.691406 340.410156 42.207031 339.878906 36.132812 C 339.597656 32.992188 337.546875 31.472656 335.074219 31.648438 C 332.5625 31.824219 330.691406 34.085938 330.832031 36.699219 C 331.183594 45.699219 331.503906 72.8125 331.46875 72.8125 C 329.453125 70.589844 327.367188 68.117188 324.964844 64.339844 C 323.867188 62.644531 321.039062 55.796875 316.65625 59.046875 C 313.6875 61.199219 317.011719 69.105469 318.425781 71.894531 C 320.757812 76.519531 323.160156 80.617188 327.722656 89.230469 C 328.109375 90.007812 331.042969 94.703125 334.4375 99.855469 C 337.722656 104.871094 337.828125 110.90625 337.792969 110.871094 L 363.171875 113.976562 C 363.171875 113.976562 363.703125 106.492188 364.375 105.011719 C 364.832031 104.058594 365.046875 102.859375 365.753906 101.90625 C 371.726562 93.464844 375.578125 82.167969 376.144531 72.109375 C 376.390625 68.332031 379.113281 48.382812 379.113281 48.382812 C 379.5 46.195312 378.050781 44.113281 375.894531 43.722656 Z M 375.894531 43.722656 "/></g><path style=" stroke:none;fill-rule:nonzero;fill:#d7ab7c;fill-opacity:1;" d="M 377.664062 229.953125 L 365.292969 102.894531 L 336.273438 103.246094 L 324.257812 229.953125 Z M 377.664062 229.953125 "/></g></svg>